<svg width="126" height="59" viewBox="0 0 126 59" fill="none" xmlns="http://www.w3.org/2000/svg">
<path d="M6.8 29C5.78667 29 4.85333 28.7467 4 28.24C3.17333 27.7333 2.50667 27.0667 2 26.24C1.49333 25.3867 1.24 24.4533 1.24 23.44V5.76C1.24 4.74667 1.49333 3.82667 2 3C2.50667 2.14667 3.17333 1.46667 4 0.959999C4.85333 0.453332 5.78667 0.199999 6.8 0.199999H24.44C25.4533 0.199999 26.3867 0.453332 27.24 0.959999C28.0933 1.46667 28.7733 2.14667 29.28 3C29.7867 3.82667 30.04 4.74667 30.04 5.76V8H24.72V6C24.72 5.86666 24.6667 5.76 24.56 5.68C24.4533 5.57333 24.3333 5.52 24.2 5.52H7C6.86667 5.52 6.74667 5.57333 6.64 5.68C6.56 5.76 6.52 5.86666 6.52 6V23.2C6.52 23.3333 6.56 23.4533 6.64 23.56C6.74667 23.64 6.86667 23.68 7 23.68H24.2C24.3333 23.68 24.4533 23.64 24.56 23.56C24.6667 23.4533 24.72 23.3333 24.72 23.2V18H18.2V12.68H30.04V23.44C30.04 24.4533 29.7867 25.3867 29.28 26.24C28.7733 27.0667 28.0933 27.7333 27.24 28.24C26.3867 28.7467 25.4533 29 24.44 29H6.8ZM57.8697 29V18.2L44.5897 0.199999H50.8297L60.5497 12.4L70.1497 0.199999H76.5097L63.1897 18.24V29H57.8697ZM91.1228 29V0.199999H96.9228L107.363 12.64L117.763 0.199999H123.603V29H118.283V7.88L107.363 20.88L96.4028 7.92V29H91.1228ZM0.00800008 59V41.72H3.152V59H0.00800008ZM5.47681 59V41.72H8.95681L15.2208 49.184L21.4608 41.72H24.9648V59H21.7728V46.328L15.2208 54.128L8.64481 46.352V59H5.47681ZM27.7424 59V41.744H41.6624C42.2704 41.744 42.8304 41.896 43.3424 42.2C43.8544 42.504 44.2624 42.912 44.5664 43.424C44.8704 43.92 45.0224 44.472 45.0224 45.08V49.736C45.0224 50.344 44.8704 50.904 44.5664 51.416C44.2624 51.928 43.8544 52.336 43.3424 52.64C42.8304 52.928 42.2704 53.072 41.6624 53.072L30.9104 53.096V59H27.7424ZM31.1984 49.88H41.5184C41.5984 49.88 41.6704 49.856 41.7344 49.808C41.7984 49.76 41.8304 49.696 41.8304 49.616V45.2C41.8304 45.12 41.7984 45.056 41.7344 45.008C41.6704 44.944 41.5984 44.912 41.5184 44.912H31.1984C31.1184 44.912 31.0464 44.944 30.9824 45.008C30.9344 45.056 30.9104 45.12 30.9104 45.2V49.616C30.9104 49.696 30.9344 49.76 30.9824 49.808C31.0464 49.856 31.1184 49.88 31.1984 49.88ZM60.5028 59L55.2948 52.784H59.4468L63.9588 58.112V59H60.5028ZM46.7268 59V41.744H60.6468C61.2548 41.744 61.8148 41.896 62.3268 42.2C62.8388 42.504 63.2468 42.912 63.5508 43.424C63.8548 43.92 64.0068 44.472 64.0068 45.08V49.736C64.0068 50.344 63.8548 50.904 63.5508 51.416C63.2468 51.928 62.8388 52.336 62.3268 52.64C61.8148 52.928 61.2548 53.072 60.6468 53.072L49.8948 53.096V59H46.7268ZM50.1828 49.88H60.5028C60.5828 49.88 60.6548 49.856 60.7188 49.808C60.7828 49.76 60.8148 49.696 60.8148 49.616V45.2C60.8148 45.12 60.7828 45.056 60.7188 45.008C60.6548 44.944 60.5828 44.912 60.5028 44.912H50.1828C50.1028 44.912 50.0308 44.944 49.9668 45.008C49.9188 45.056 49.8948 45.12 49.8948 45.2V49.616C49.8948 49.696 49.9188 49.76 49.9668 49.808C50.0308 49.856 50.1028 49.88 50.1828 49.88ZM69.8195 59C69.2115 59 68.6515 58.848 68.1395 58.544C67.6435 58.24 67.2435 57.84 66.9395 57.344C66.6355 56.832 66.4835 56.272 66.4835 55.664V45.056C66.4835 44.448 66.6355 43.896 66.9395 43.4C67.2435 42.888 67.6435 42.48 68.1395 42.176C68.6515 41.872 69.2115 41.72 69.8195 41.72H80.4275C81.0355 41.72 81.5875 41.872 82.0835 42.176C82.5955 42.48 83.0035 42.888 83.3075 43.4C83.6115 43.896 83.7635 44.448 83.7635 45.056V55.664C83.7635 56.272 83.6115 56.832 83.3075 57.344C83.0035 57.84 82.5955 58.24 82.0835 58.544C81.5875 58.848 81.0355 59 80.4275 59H69.8195ZM69.9395 55.808H80.2595C80.3395 55.808 80.4115 55.784 80.4755 55.736C80.5395 55.672 80.5715 55.6 80.5715 55.52V45.2C80.5715 45.12 80.5395 45.056 80.4755 45.008C80.4115 44.944 80.3395 44.912 80.2595 44.912H69.9395C69.8595 44.912 69.7875 44.944 69.7235 45.008C69.6755 45.056 69.6515 45.12 69.6515 45.2V55.52C69.6515 55.6 69.6755 55.672 69.7235 55.736C69.7875 55.784 69.8595 55.808 69.9395 55.808ZM95.1136 59L85.1056 41.72H88.8016L96.5296 55.16L104.282 41.72H107.954L97.9456 59H95.1136ZM109.728 59V41.72H125.64V44.912H112.92V48.752H123.144V51.968H112.92V55.808H125.64V59H109.728Z" fill="#FBFBFB"/>
</svg>
